# xmcd
#
# Track frame offsets: 
#        182
#        30742
#        55950
#        76700
#        100810
#        120495
#        141840
#        165700
#
# Disc length: 2634 seconds
#
# Revision: 2
# Processed by: cddbd v1.5.2PL0 Copyright (c) Steve Scherf et al.
# Submitted via: ExactAudioCopy v0.99pb5
#
DISCID=5e0a4808
DTITLE=Mal Waldron - Steve Lacy - Sempre Amore
DYEAR=1987
DGENRE=Jazz
TTITLE0=Johnny Come Lately
TTITLE1=Prelude To A Kiss
TTITLE2=Stars Crossed Lovers
TTITLE3=To The Bitter
TTITLE4=Azure
TTITLE5=Sempre Amore
TTITLE6=A Flower Is A Lovesome Thing
TTITLE7=Smada
EXTD=YEAR: 1987
EXTT0=
EXTT1=
EXTT2=
EXTT3=
EXTT4=
EXTT5=
EXTT6=
EXTT7=
PLAYORDER=
